<!DOCTYPE svg PUBLIC "-//W3C//DTD SVG 1.1//EN" "http://www.w3.org/Graphics/SVG/1.1/DTD/svg11.dtd">
<!-- Uploaded to: SVG Repo, www.svgrepo.com, Transformed by: SVG Repo Mixer Tools -->
<svg fill="#000000" width="256px" height="256px" viewBox="0 0 24 24" xmlns="http://www.w3.org/2000/svg">
<g id="SVGRepo_bgCarrier" stroke-width="0"/>
<g id="SVGRepo_tracerCarrier" stroke-linecap="round" stroke-linejoin="round"/>
<g id="SVGRepo_iconCarrier"> <g data-name="Layer 2"> <g data-name="collapse"> <rect width="24" height="24" transform="rotate(180 12 12)" opacity="0"/> <path d="M19 9h-2.58l3.29-3.29a1 1 0 1 0-1.42-1.42L15 7.57V5a1 1 0 0 0-1-1 1 1 0 0 0-1 1v5a1 1 0 0 0 1 1h5a1 1 0 0 0 0-2z"/> <path d="M10 13H5a1 1 0 0 0 0 2h2.57l-3.28 3.29a1 1 0 0 0 0 1.42 1 1 0 0 0 1.42 0L9 16.42V19a1 1 0 0 0 1 1 1 1 0 0 0 1-1v-5a1 1 0 0 0-1-1z"/> </g> </g> </g>
</svg>